<svg width="331" height="77" viewBox="0 0 331 77" fill="none" xmlns="http://www.w3.org/2000/svg">
<path fill-rule="evenodd" clip-rule="evenodd" d="M25.0631 0.916634L52.7727 1.56324L53.2568 18.3007C58.1523 18.1919 64.9834 20.3663 67.9768 25.4467H75.8288L75.6675 52.5007L53.4183 53.469L51.8033 74.6916H26.3553L24.9018 52.8233L2.31953 52.3382L1.35107 25.607L14.4618 25.2842C15.1218 22.6404 21.9137 17.152 24.4164 17.6249L25.0631 0.916634Z" fill="#C9D8F1"/>
<path fill-rule="evenodd" clip-rule="evenodd" d="M66.3047 33.0223C64.4733 25.6444 55.5332 17.1343 39.8077 29.1445C32.9118 16.7142 15.6868 19.2963 16.2191 32.861C18.4966 48.0483 39.5051 50.699 40.4543 64.2041C55.2417 59.6357 67.5745 41.7002 66.3047 33.0223Z" fill="white"/>
<path fill-rule="evenodd" clip-rule="evenodd" d="M53.8443 29.063C65.555 33.4149 58.5919 47.245 43.9692 59.6362C62.6937 45.8117 67.1847 28.9789 53.8443 29.063Z" fill="#C9D8F1"/>
<path fill-rule="evenodd" clip-rule="evenodd" d="M25.7202 49.8445C22.9036 47.4237 8.60955 38.2515 15.2545 24.4783C10.1696 24.5379 5.08482 24.5972 0 24.6566C0.117499 34.2346 0.236457 43.8136 0.353956 53.3916C8.15902 53.4512 15.9641 53.5105 23.7689 53.5699C23.8866 61.1383 24.0054 68.7069 24.1231 76.2743C33.821 76.3336 43.5178 76.393 53.2145 76.4523C53.2741 69.2975 53.3322 62.1437 53.3916 54.9887C49.933 58.4475 42.4834 64.6564 40.0884 62.4385C38.972 53.6224 30.2939 50.4789 24.6554 45.0555C18.6661 39.4136 14.5159 31.2555 20.0435 24.6566C24.55 20.4346 33.0331 19.3307 39.3788 30.8643C63.3552 12.298 74.4417 36.8368 54.2783 53.3916C61.7289 53.4512 69.1786 53.5105 76.6294 53.5699C76.7472 43.9313 76.8659 34.2939 76.9837 24.6566C74.0866 24.5972 71.1894 24.5379 68.2921 24.4783C59.9716 12.838 47.1165 18.3029 40.2653 23.0595C36.4177 16.6958 31.1502 16.8595 26.0744 16.1421C26.1337 11.8251 26.1931 7.50899 26.2524 3.1929C34.3523 2.89708 42.453 2.60126 50.5539 2.3052C50.6132 6.26709 50.6716 10.229 50.731 14.1909C45.5184 14.8073 43.6299 16.8785 42.2165 19.157C45.2537 16.7182 48.9938 15.6838 53.2145 15.6099V-1.46757e-05H23.7689C23.946 6.03064 24.1231 12.0615 24.3012 18.0934C30.1012 18.4542 35.6074 18.4398 40.4424 24.8337C53.5395 15.8755 63.8875 22.2616 67.0505 26.4295C69.5934 26.666 72.1353 26.9024 74.6782 27.1391C74.6188 35.1804 74.5595 43.2219 74.5001 51.2635C69.534 51.3228 64.5667 51.3822 59.6006 51.4415C79.8114 29.1756 56.2116 12.2722 40.4424 27.8485C32.5276 18.081 24.0793 18.2481 18.9128 23.1145C16.4818 25.7279 9.52644 34.815 23.7689 45.7648C29.403 51.8573 38.4621 55.5221 38.9351 65.8086C40.2059 67.4056 46.9766 63.1479 50.5539 60.4873C50.6132 65.0992 50.6716 69.7111 50.731 74.323C42.8084 74.0282 34.7961 74.2646 26.8735 73.9688C26.8139 67.7598 26.8431 61.0195 26.785 54.8118C26.016 53.2145 24.7743 52.2093 23.0595 51.7957H2.83774C2.66064 43.6949 2.48232 35.5952 2.30522 27.4943L11.3519 26.6964C8.64094 35.1099 12.6442 41.9027 21.9947 48.4255C27.6478 52.8705 33.1732 57.4274 34.7669 65.4544C36.2151 75.0917 46.3555 68.765 49.4893 64.0356C46.2962 66.1044 40.0884 69.5933 37.2504 67.5827C35.2892 63.9561 38.442 61.7199 25.7202 49.8445Z" fill="#485784"/>
<path d="M103.067 29.2303C106.348 29.2303 108.339 27.5264 108.339 24.9117V24.8191C108.339 21.9682 106.348 20.4499 103.025 20.4499H98.7063V29.2303H103.067ZM89.5044 12.7157H103.733C112.126 12.7157 117.54 17.0339 117.54 24.389V24.4902C117.54 32.3174 111.518 36.4417 103.261 36.4417H98.7063V45.9305H89.5044V12.7157Z" fill="#1E3B5F"/>
<path d="M120.003 20.2644H129.011V25.4346C130.479 21.926 132.857 19.6487 137.125 19.8343V29.3231H136.366C131.676 29.3231 129.011 32.0304 129.011 37.9599V45.9306H120.003V20.2644Z" fill="#1E3B5F"/>
<path d="M154.939 9.20684L163.34 11.9142L156.373 17.9872H150.013L154.939 9.20684ZM158.886 33.2112V33.1185C158.886 29.9894 156.609 27.3326 153.421 27.3326C150.148 27.3326 148.073 29.9388 148.073 33.0259V33.1185C148.073 36.2477 150.351 38.913 153.522 38.913C156.794 38.913 158.886 36.2983 158.886 33.2112V33.2112ZM139.284 33.2112V33.1185C139.284 25.8144 145.273 19.6908 153.522 19.6908C161.737 19.6908 167.658 25.7214 167.658 33.0259V33.1185C167.658 40.4312 161.686 46.5463 153.421 46.5463C145.222 46.5463 139.284 40.5239 139.284 33.2112Z" fill="#1E3B5F"/>
<path d="M170.981 27.1385H186.551V35.0669H170.981V27.1385Z" fill="#1E3B5F"/>
<path d="M187.007 40.9963L192.118 34.873C195.39 37.4877 199.051 38.8624 202.897 38.8624C205.36 38.8624 206.693 38.0105 206.693 36.5851V36.4924C206.693 35.1175 205.596 34.3585 201.092 33.3124C194.024 31.6932 188.559 29.7025 188.559 22.8706V22.7779C188.559 16.6122 193.451 12.1504 201.43 12.1504C207.064 12.1504 211.483 13.6686 215.093 16.5616L210.488 23.0647C207.452 20.9307 204.129 19.792 201.193 19.792C198.95 19.792 197.87 20.7368 197.87 21.9259V22.0189C197.87 23.5369 199.001 24.2032 203.606 25.2493C211.247 26.9023 215.987 29.3736 215.987 35.5899V35.6826C215.987 42.464 210.623 46.504 202.56 46.504C196.672 46.504 191.072 44.6485 187.007 40.9963Z" fill="#1E3B5F"/>
<path d="M234.999 36.6357V35.4464C234.105 35.0669 232.823 34.7801 231.49 34.7801C228.875 34.7801 227.357 36.0621 227.357 37.9599V38.0528C227.357 39.807 228.69 40.8531 230.545 40.8531C233.16 40.8531 234.999 39.1913 234.999 36.6357ZM218.687 38.5756V38.4829C218.687 33.1691 222.718 30.4195 228.74 30.4195C231.119 30.4195 233.43 30.8919 234.914 31.4147V30.9846C234.914 28.3278 233.244 26.8096 229.786 26.8096C227.087 26.8096 224.995 27.3326 222.718 28.2349L220.863 21.8753C223.764 20.6945 226.851 19.8849 231.254 19.8849C235.859 19.8849 238.997 20.9728 241.021 23.0141C242.978 24.9118 243.787 27.5686 243.787 31.1787V45.9306H234.864V43.2736C233.109 45.2219 230.68 46.504 227.323 46.504C222.431 46.504 218.687 43.7039 218.687 38.5756" fill="#1E3B5F"/>
<path d="M259.863 9.30804L268.247 12.0071L261.28 18.0799H254.921L259.863 9.30804ZM246.334 37.0573V20.2644H255.343V34.1644C255.343 36.9646 256.827 38.4829 259.003 38.4829C261.129 38.4829 262.748 36.9646 262.748 34.1644V20.2644H271.756V45.9306H262.748V42.4217C261.095 44.5556 258.716 46.504 255.056 46.504C249.607 46.504 246.334 42.8941 246.334 37.0573" fill="#1E3B5F"/>
<path d="M293.112 33.1185V33.0259C293.112 29.6605 290.784 27.2397 287.883 27.2397C284.998 27.2397 282.62 29.6099 282.62 33.0259V33.1185C282.62 36.5345 284.998 38.9553 287.883 38.9553C290.784 38.9553 293.112 36.5345 293.112 33.1185ZM273.797 33.2112V33.1185C273.797 24.7683 279.01 19.6908 285.083 19.6908C288.979 19.6908 291.257 21.4538 292.96 23.3936V11.2985H301.985V45.9306H292.96V42.5146C291.206 44.6486 288.979 46.504 285.133 46.504C279.061 46.504 273.797 41.4264 273.797 33.2112" fill="#1E3B5F"/>
<path d="M322.329 30.9846C322.009 28.1423 320.339 26.3372 317.876 26.3372C315.497 26.3372 313.895 28.1844 313.423 30.9846H322.329ZM304.87 33.2113V33.1186C304.87 25.6203 310.234 19.6908 317.825 19.6908C326.698 19.6908 330.781 26.1939 330.781 33.7343C330.781 34.3077 330.781 34.9743 330.73 35.59H313.558C314.266 38.39 316.307 39.8071 319.107 39.8071C321.25 39.8071 322.954 39.0057 324.809 37.2009L329.785 41.3253C327.322 44.463 323.763 46.5461 318.635 46.5461C310.572 46.5461 304.87 41.1903 304.87 33.2113" fill="#1E3B5F"/>
<path d="M89.6475 59.898H95.7372V62.7827H89.6475V59.898Z" fill="#485784"/>
<path d="M113.947 60.5559C113.947 58.093 112.26 56.3724 109.78 56.3724H107.427V64.7226H109.78C112.26 64.7226 113.947 63.0355 113.947 60.5897V60.5559ZM109.78 67.472H104.383V53.6227H109.78C114.116 53.6227 117.135 56.6086 117.135 60.5053V60.5559C117.135 64.4358 114.116 67.472 109.78 67.472Z" fill="#485784"/>
<path d="M128.353 58.3629C128.353 57.047 127.442 56.3724 125.958 56.3724H122.938V60.3533H126.025C127.51 60.3533 128.353 59.5605 128.353 58.3967V58.3629ZM128.303 67.4721L125.334 63.0356H122.938V67.4721H119.902V53.6228H126.228C129.484 53.6228 131.44 55.3434 131.44 58.1943V58.2279C131.44 60.4715 130.243 61.8716 128.471 62.5296L131.862 67.4721H128.303Z" fill="#485784"/>
<path d="M133.819 64.3007H137.024V67.472H133.819V64.3007Z" fill="#485784"/>
<path d="M145.897 67.4721V53.6228H148.933V64.7056H155.833V67.4721H145.897Z" fill="#485784"/>
<path d="M163.559 67.6915C159.848 67.6915 157.57 65.6166 157.57 61.5343V53.6227H160.607V61.4499C160.607 63.7104 161.737 64.8744 163.593 64.8744C165.448 64.8744 166.578 63.7442 166.578 61.5511V53.6227H169.632V61.4331C169.632 65.6334 167.27 67.6915 163.559 67.6915Z" fill="#485784"/>
<path d="M172.938 53.6228H175.974V67.4722H172.938V53.6228Z" fill="#485784"/>
<path d="M179.061 67.4721V65.161L186.669 56.3048H179.297V53.6228H190.583V55.9506L182.975 64.8068H190.583V67.4721H179.061Z" fill="#485784"/>
<path d="M202.526 56.3892V59.3413H209.122V62.1078H202.526V67.4721H199.473V53.6228H210.016V56.3892H202.526Z" fill="#485784"/>
<path d="M212.512 67.4721V53.6228H222.938V56.3386H215.532V59.1389H222.06V61.8548H215.532V64.7562H223.039V67.4721H212.512Z" fill="#485784"/>
<path d="M234.273 58.3629C234.273 57.047 233.362 56.3724 231.878 56.3724H228.858V60.3533H231.929C233.413 60.3533 234.273 59.5605 234.273 58.3967V58.3629ZM234.206 67.4721L231.237 63.0356H228.858V67.4721H225.805V53.6228H232.131C235.404 53.6228 237.36 55.3434 237.36 58.1943V58.2279C237.36 60.4715 236.146 61.8716 234.391 62.5296L237.765 67.4721H234.206Z" fill="#485784"/>
<path d="M249.877 67.4721L243.163 58.6665V67.4721H240.161V53.6228H242.978L249.455 62.1584V53.6228H252.458V67.4721H249.877Z" fill="#485784"/>
<path d="M261.955 57.1821L260.117 61.6692H263.794L261.955 57.1821ZM266.139 67.4722L264.874 64.3683H259.02L257.755 67.4722H254.651L260.589 53.5384H263.389L269.327 67.4722H266.139Z" fill="#485784"/>
<path d="M281.237 67.4721L274.54 58.6665V67.4721H271.537V53.6228H274.337L280.815 62.1584V53.6228H283.834V67.4721H281.237Z" fill="#485784"/>
<path d="M296.789 60.5559C296.789 58.093 295.103 56.3724 292.623 56.3724H290.261V64.7226H292.623C295.103 64.7226 296.789 63.0355 296.789 60.5897V60.5559ZM292.623 67.472H287.225V53.6227H292.623C296.958 53.6227 299.978 56.6086 299.978 60.5053V60.5559C299.978 64.4358 296.958 67.472 292.623 67.472Z" fill="#485784"/>
<path d="M313.659 60.5559C313.659 58.1774 311.921 56.2038 309.475 56.2038C307.012 56.2038 305.325 58.1436 305.325 60.5053V60.5559C305.325 62.9175 307.063 64.8912 309.509 64.8912C311.955 64.8912 313.659 62.9681 313.659 60.5897V60.5559ZM309.475 67.7083C305.207 67.7083 302.137 64.5202 302.137 60.5897V60.5559C302.137 56.6086 305.241 53.3865 309.509 53.3865C313.777 53.3865 316.847 56.5748 316.847 60.5053V60.5559C316.847 64.4864 313.743 67.7083 309.475 67.7083" fill="#485784"/>
<path d="M324.91 59.898H331V62.7827H324.91V59.898Z" fill="#485784"/>
</svg>
